<?xml version="1.0" encoding="utf-8"?>
<!-- Generator: Adobe Illustrator 25.4.1, SVG Export Plug-In . SVG Version: 6.00 Build 0)  -->
<svg version="1.1" id="레이어_1" xmlns="http://www.w3.org/2000/svg" xmlns:xlink="http://www.w3.org/1999/xlink" x="0px"
	 y="0px" viewBox="0 0 595.3 841.9" style="enable-background:new 0 0 595.3 841.9;" xml:space="preserve">
<g>
	<path d="M197.7,428.5c0-1.8,0.4-3.5,1.1-5.1c0.7-1.6,1.8-3,3.2-4.2c1.4-1.2,3-2.1,5-2.8c1.9-0.7,4.1-1,6.5-1s4.6,0.3,6.5,1
		c1.9,0.7,3.6,1.6,5,2.8c1.4,1.2,2.4,2.6,3.2,4.2c0.7,1.6,1.1,3.3,1.1,5.1c0,1.8-0.4,3.5-1.1,5.1c-0.7,1.6-1.8,3-3.2,4.2
		c-1.4,1.2-3,2.1-5,2.8c-1.9,0.7-4.1,1-6.5,1s-4.6-0.3-6.5-1c-1.9-0.7-3.6-1.6-5-2.8s-2.4-2.6-3.2-4.2
		C198.1,432.1,197.7,430.4,197.7,428.5z M204.4,428.5c0,1,0.2,2,0.6,2.9c0.4,0.9,1,1.7,1.8,2.4c0.8,0.7,1.7,1.2,2.9,1.7
		s2.4,0.6,3.8,0.6c1.4,0,2.7-0.2,3.8-0.6c1.1-0.4,2.1-1,2.9-1.7c0.8-0.7,1.4-1.5,1.8-2.4c0.4-0.9,0.6-1.9,0.6-2.9c0-1-0.2-2-0.6-2.9
		c-0.4-0.9-1-1.7-1.8-2.4c-0.8-0.7-1.7-1.2-2.9-1.7c-1.1-0.4-2.4-0.6-3.8-0.6c-1.4,0-2.7,0.2-3.8,0.6c-1.1,0.4-2.1,1-2.9,1.7
		c-0.8,0.7-1.4,1.5-1.8,2.4C204.6,426.6,204.4,427.5,204.4,428.5z"/>
	<path d="M232.4,415.9h6.4v3.7c1.4-1,2.9-1.9,4.4-2.7s3.1-1.3,4.7-1.7l1.9,5.8c-2.4,0.2-4.6,0.8-6.5,1.6c-1.9,0.9-3.4,2.1-4.5,3.6
		v15.1h-6.4V415.9z"/>
	<path d="M251.2,407.6h6.4v10.6c0.6-0.4,1.2-0.8,2-1.1c0.8-0.3,1.6-0.6,2.4-0.9c0.9-0.3,1.8-0.5,2.7-0.6c0.9-0.2,1.9-0.2,2.8-0.2
		c2.1,0,4.1,0.3,5.9,0.9c1.8,0.6,3.3,1.5,4.6,2.7s2.3,2.5,3,4.1c0.7,1.6,1.1,3.4,1.1,5.3c0,2-0.4,3.8-1.1,5.5
		c-0.8,1.6-1.8,3-3.1,4.2c-1.3,1.2-2.9,2-4.8,2.7s-3.8,0.9-6,0.9c-0.9,0-1.8-0.1-2.7-0.2c-0.9-0.1-1.8-0.3-2.6-0.5
		c-0.8-0.2-1.6-0.4-2.3-0.7c-0.7-0.3-1.4-0.6-1.9-0.9v1.8h-6.4V407.6z M257.6,433.2c0.6,0.5,1.3,1,2,1.3c0.7,0.4,1.4,0.7,2.2,0.9
		c0.7,0.2,1.5,0.4,2.3,0.5c0.8,0.1,1.5,0.2,2.2,0.2c1.5,0,2.8-0.2,3.9-0.6c1.1-0.4,2.1-0.9,2.9-1.6c0.8-0.7,1.4-1.5,1.8-2.4
		c0.4-0.9,0.6-1.9,0.6-3c0-1-0.2-2-0.6-2.9s-1-1.7-1.8-2.4s-1.7-1.2-2.8-1.6c-1.1-0.4-2.3-0.6-3.6-0.6c-0.9,0-1.7,0.1-2.6,0.2
		c-0.9,0.2-1.7,0.4-2.5,0.7c-0.8,0.3-1.5,0.7-2.2,1.1c-0.7,0.4-1.3,0.9-1.8,1.4V433.2z"/>
	<path d="M288.5,413.5c-0.5,0-1-0.1-1.5-0.2c-0.4-0.2-0.8-0.4-1.1-0.6c-0.3-0.3-0.6-0.6-0.7-0.9c-0.2-0.4-0.3-0.7-0.3-1.1
		c0-0.4,0.1-0.8,0.3-1.1c0.2-0.4,0.4-0.7,0.7-0.9c0.3-0.3,0.7-0.5,1.1-0.6s0.9-0.2,1.5-0.2c0.6,0,1.1,0.1,1.5,0.2
		c0.4,0.2,0.8,0.4,1.1,0.6c0.3,0.3,0.6,0.6,0.7,0.9c0.2,0.4,0.3,0.7,0.3,1.1c0,0.4-0.1,0.8-0.3,1.1c-0.2,0.4-0.4,0.7-0.7,0.9
		c-0.3,0.3-0.7,0.5-1.1,0.6C289.6,413.4,289.1,413.5,288.5,413.5z M285.3,415.9h6.4v25.4h-6.4V415.9z"/>
	<path d="M294.9,428.7c0-2,0.4-3.8,1.1-5.5c0.8-1.6,1.8-3,3.1-4.2c1.3-1.2,2.9-2,4.8-2.7s3.8-0.9,6-0.9c0.9,0,1.8,0.1,2.7,0.2
		c0.9,0.1,1.8,0.3,2.6,0.5c0.8,0.2,1.6,0.4,2.3,0.7c0.7,0.3,1.4,0.6,1.9,0.9v-10.1h6.4v33.6h-6.4v-2.4c-0.6,0.4-1.2,0.8-2,1.1
		c-0.8,0.3-1.6,0.6-2.4,0.9c-0.9,0.3-1.8,0.5-2.7,0.6s-1.9,0.2-2.8,0.2c-2.1,0-4.1-0.3-5.9-0.9c-1.8-0.6-3.3-1.5-4.6-2.7
		c-1.3-1.1-2.3-2.5-3-4.1C295.2,432.4,294.9,430.6,294.9,428.7z M301.6,428.7c0,1,0.2,2,0.6,2.9c0.4,0.9,1,1.7,1.8,2.4
		c0.8,0.7,1.7,1.2,2.8,1.6c1.1,0.4,2.3,0.6,3.6,0.6c0.9,0,1.7-0.1,2.6-0.2c0.9-0.2,1.7-0.4,2.5-0.7c0.8-0.3,1.5-0.7,2.2-1.1
		c0.7-0.4,1.3-0.9,1.8-1.4v-8.8c-0.6-0.5-1.3-1-2-1.3s-1.4-0.7-2.2-0.9c-0.7-0.2-1.5-0.4-2.3-0.5c-0.8-0.1-1.5-0.2-2.2-0.2
		c-1.5,0-2.8,0.2-3.9,0.6c-1.1,0.4-2.1,0.9-2.9,1.6c-0.8,0.7-1.4,1.5-1.8,2.4C301.8,426.6,301.6,427.6,301.6,428.7z"/>
	<path d="M329,428.7c0-2,0.4-3.8,1.1-5.5c0.8-1.6,1.8-3,3.1-4.2c1.3-1.2,2.9-2,4.8-2.7s3.8-0.9,6-0.9c0.9,0,1.8,0.1,2.7,0.2
		c0.9,0.1,1.8,0.3,2.6,0.5c0.8,0.2,1.6,0.4,2.3,0.7c0.7,0.3,1.4,0.6,1.9,0.9v-10.1h6.4v33.6h-6.4v-2.4c-0.6,0.4-1.2,0.8-2,1.1
		c-0.8,0.3-1.6,0.6-2.4,0.9c-0.9,0.3-1.8,0.5-2.7,0.6s-1.9,0.2-2.8,0.2c-2.1,0-4.1-0.3-5.9-0.9c-1.8-0.6-3.3-1.5-4.6-2.7
		c-1.3-1.1-2.3-2.5-3-4.1C329.4,432.4,329,430.6,329,428.7z M335.7,428.7c0,1,0.2,2,0.6,2.9c0.4,0.9,1,1.7,1.8,2.4
		c0.8,0.7,1.7,1.2,2.8,1.6c1.1,0.4,2.3,0.6,3.6,0.6c0.9,0,1.7-0.1,2.6-0.2c0.9-0.2,1.7-0.4,2.5-0.7c0.8-0.3,1.5-0.7,2.2-1.1
		c0.7-0.4,1.3-0.9,1.8-1.4v-8.8c-0.6-0.5-1.3-1-2-1.3c-0.7-0.4-1.4-0.7-2.2-0.9c-0.7-0.2-1.5-0.4-2.3-0.5c-0.8-0.1-1.5-0.2-2.2-0.2
		c-1.5,0-2.8,0.2-3.9,0.6c-1.1,0.4-2.1,0.9-2.9,1.6c-0.8,0.7-1.4,1.5-1.8,2.4C335.9,426.6,335.7,427.6,335.7,428.7z"/>
	<path d="M363.1,428.5c0-1.7,0.4-3.4,1.1-4.9c0.7-1.6,1.7-3,3-4.2c1.3-1.2,2.9-2.2,4.8-2.9c1.9-0.7,4.1-1.1,6.5-1.1
		c2.4,0,4.6,0.4,6.5,1.1c1.9,0.7,3.6,1.7,4.9,3s2.4,2.7,3.1,4.4c0.7,1.7,1.1,3.5,1.1,5.5c0,0.2,0,0.5,0,0.8c0,0.3,0,0.5-0.1,0.8h-24
		c0.3,0.8,0.7,1.5,1.3,2.1c0.6,0.6,1.4,1.2,2.3,1.6c0.9,0.5,2,0.8,3.2,1.1c1.2,0.3,2.5,0.4,4,0.4c1.5,0,2.9-0.2,4.4-0.5
		c1.4-0.3,2.8-0.7,4.1-1.2l2.1,4.9c-0.8,0.4-1.7,0.7-2.5,1c-0.9,0.3-1.7,0.5-2.7,0.7c-0.9,0.2-1.9,0.3-2.9,0.4
		c-1,0.1-2.1,0.2-3.2,0.2c-2.9,0-5.4-0.3-7.5-1c-2.1-0.7-3.9-1.6-5.4-2.8s-2.5-2.6-3.3-4.2C363.5,432,363.1,430.3,363.1,428.5z
		 M387.5,426c-0.2-0.7-0.6-1.4-1.1-2s-1.1-1.1-1.8-1.6c-0.7-0.5-1.5-0.8-2.5-1.1s-2-0.4-3.1-0.4c-1.2,0-2.3,0.1-3.3,0.4
		c-1,0.3-1.9,0.6-2.6,1.1c-0.7,0.5-1.4,1-1.9,1.6c-0.5,0.6-0.9,1.2-1.1,1.9H387.5z"/>
	<path d="M397.4,415.9h6.4v2.1c1.7-1,3.3-1.6,4.8-2c1.5-0.4,3-0.6,4.5-0.6c1.9,0,3.7,0.3,5.4,0.8s3.1,1.4,4.3,2.5s2.1,2.5,2.8,4.2
		c0.7,1.7,1,3.6,1,5.8v12.5h-6.3v-11.4c0-1.4-0.2-2.6-0.6-3.7c-0.4-1.1-1-2-1.7-2.8c-0.7-0.8-1.6-1.3-2.7-1.7
		c-1.1-0.4-2.2-0.6-3.5-0.6c-0.7,0-1.4,0.1-2.1,0.2c-0.7,0.1-1.4,0.3-2.1,0.6c-0.7,0.3-1.4,0.6-2,1c-0.6,0.4-1.2,0.8-1.8,1.3v17.1
		h-6.4V415.9z"/>
	<polygon points="198,413.6 198,407.6 169.4,407.6 169.4,441.2 176.2,441.2 176.2,428.5 194.5,428.5 194.5,428 194.5,422.6 
		176.2,422.6 176.2,413.6 	"/>
</g>
<path d="M331.5,407.6c0-0.4,0.1-0.8,0.3-1.2c0.2-0.4,0.4-0.7,0.7-1c0.3-0.3,0.7-0.5,1.2-0.7c0.5-0.2,1-0.3,1.6-0.3
	c0.6,0,1.1,0.1,1.6,0.3c0.5,0.2,0.9,0.4,1.2,0.7c0.3,0.3,0.6,0.7,0.8,1.1c0.2,0.4,0.3,0.9,0.3,1.3c0,0.1,0,0.1,0,0.2
	c0,0.1,0,0.1,0,0.2h-5.9c0.1,0.2,0.2,0.4,0.3,0.5c0.1,0.2,0.3,0.3,0.6,0.4c0.2,0.1,0.5,0.2,0.8,0.3c0.3,0.1,0.6,0.1,1,0.1
	s0.7,0,1.1-0.1c0.4-0.1,0.7-0.2,1-0.3l0.5,1.2c-0.2,0.1-0.4,0.2-0.6,0.3c-0.2,0.1-0.4,0.1-0.7,0.2c-0.2,0-0.5,0.1-0.7,0.1
	c-0.2,0-0.5,0-0.8,0c-0.7,0-1.3-0.1-1.8-0.3c-0.5-0.2-1-0.4-1.3-0.7c-0.4-0.3-0.6-0.6-0.8-1C331.5,408.5,331.5,408.1,331.5,407.6z
	 M337.5,407c-0.1-0.2-0.1-0.3-0.3-0.5c-0.1-0.1-0.3-0.3-0.4-0.4c-0.2-0.1-0.4-0.2-0.6-0.3s-0.5-0.1-0.8-0.1c-0.3,0-0.6,0-0.8,0.1
	c-0.2,0.1-0.5,0.2-0.6,0.3c-0.2,0.1-0.3,0.2-0.5,0.4c-0.1,0.1-0.2,0.3-0.3,0.5H337.5z"/>
<path d="M335.4,402.2c3,0,5.4,2.4,5.4,5.4s-2.4,5.4-5.4,5.4c-3,0-5.4-2.4-5.4-5.4S332.4,402.2,335.4,402.2 M335.4,401.2
	c-3.6,0-6.4,2.9-6.4,6.4s2.9,6.4,6.4,6.4c3.6,0,6.4-2.9,6.4-6.4S339,401.2,335.4,401.2L335.4,401.2z"/>
</svg>
